# xmcd
#
# Track frame offsets:
#	150
#	46474
#	62407
#	83967
#	131786
#	173602
#	195858
#
# Disc length: 2964 seconds
#
# Revision: 1
# Processed by: cddbd v1.5.1PL2 Copyright (c) Steve Scherf et al.
# Submitted via: EasyCDDAExtractor 9.0.0.1
#
DISCID=530b9207
DTITLE=Blue Oyster Cult - Toad's Place New Haven 16-10-98 Disc 2
DYEAR=1998
DGENRE=Hard Rock
TTITLE0=Astronomy
TTITLE1=The Last Day Of May
TTITLE2=In Thee
TTITLE3=Godzilla
TTITLE4=(Don't Fear)The Reaper
TTITLE5=Lips In The Hills
TTITLE6=The Red And The Black
EXTD=
EXTT0=
EXTT1=
EXTT2=
EXTT3=
EXTT4=
EXTT5=
EXTT6=
PLAYORDER=
